<svg width="64" height="64" viewBox="0 0 64 64" fill="none" xmlns="http://www.w3.org/2000/svg">
  <rect width="64" height="64" rx="16" fill="#F8FAFC"/>
  <rect x="2" y="2" width="60" height="60" rx="14" stroke="#CCFBF1" stroke-width="2"/>
  <path d="M32 6.8 50.5 13.9v13.8c0 13.4-7.6 24.1-18.5 29.5-10.9-5.4-18.5-16.1-18.5-29.5V13.9L32 6.8Z" fill="url(#shieldGradient)"/>
  <path d="M32 12.5 45.1 17.4v9.9c0 10-5.2 17.8-13.1 22.2-7.9-4.4-13.1-12.2-13.1-22.2v-9.9L32 12.5Z" fill="#ECFDF5"/>
  <path d="M18.8 39.4 28.5 31.2 35.3 36.5 46 24.1" stroke="#0F766E" stroke-width="4.2" stroke-linecap="round" stroke-linejoin="round"/>
  <path d="M22.6 43.2c3.2 3.6 6.5 6 9.4 7.5 3.1-1.6 6.7-4.2 10.1-8.3" stroke="#99F6E4" stroke-width="2" stroke-linecap="round" opacity="0.8"/>
  <circle cx="19.4" cy="39.3" r="4.4" fill="#D97706" stroke="#ECFDF5" stroke-width="2.2"/>
  <circle cx="28.5" cy="31.2" r="4.4" fill="#D97706" stroke="#ECFDF5" stroke-width="2.2"/>
  <circle cx="45.8" cy="24.1" r="4.4" fill="#D97706" stroke="#ECFDF5" stroke-width="2.2"/>
  <circle cx="35.3" cy="36.5" r="2.4" fill="#0F766E" stroke="#ECFDF5" stroke-width="1.6"/>
  <defs>
    <linearGradient id="shieldGradient" x1="13.5" y1="6.8" x2="50.5" y2="57.2" gradientUnits="userSpaceOnUse">
      <stop stop-color="#0F766E"/>
      <stop offset="1" stop-color="#134E4A"/>
    </linearGradient>
  </defs>
</svg>
